<svg width="18" height="18" viewBox="0 0 18 18" fill="none" xmlns="http://www.w3.org/2000/svg">
    <path fill-rule="evenodd" clip-rule="evenodd"
        d="M1 14.7143V3.28571C1 2.67951 1.24082 2.09812 1.66947 1.66947C2.09812 1.24082 2.67951 1 3.28571 1H14.7143C15.3205 1 15.9019 1.24082 16.3305 1.66947C16.7592 2.09812 17 2.67951 17 3.28571V14.7143C17 15.3205 16.7592 15.9019 16.3305 16.3305C15.9019 16.7592 15.3205 17 14.7143 17H3.28571C2.67951 17 2.09812 16.7592 1.66947 16.3305C1.24082 15.9019 1 15.3205 1 14.7143Z"
        stroke="#F4F4F4" stroke-width="1.14286" stroke-linecap="round" stroke-linejoin="round" />
    <path fill-rule="evenodd" clip-rule="evenodd"
        d="M3.28571 14.7143V3.28571C3.28571 2.67951 3.52653 2.09812 3.95518 1.66947C4.38384 1.24082 4.96522 1 5.57143 1H3.28571C2.14286 1 1 2.02286 1 3.28571V14.7143C1 15.9771 2.14286 17 3.28571 17H5.57143C4.96522 17 4.38384 16.7592 3.95518 16.3305C3.52653 15.9019 3.28571 15.3205 3.28571 14.7143Z"
        fill="#F4F4F4" stroke="#F4F4F4" stroke-width="1.14286" stroke-linecap="round" stroke-linejoin="round" />
    <path d="M8.99998 12.4286L5.57141 8.99998M5.57141 8.99998L8.99998 5.57141M5.57141 8.99998H14.7143" stroke="#F4F4F4"
        stroke-width="1.14286" stroke-linecap="round" stroke-linejoin="round" />
</svg>