<svg width="20" height="20" viewBox="0 0 20 20" fill="none" xmlns="http://www.w3.org/2000/svg">
<path fill-rule="evenodd" clip-rule="evenodd" d="M7 2C7 3.10457 6.10457 4 5 4C3.89543 4 3 3.10457 3 2C3 0.89543 3.89543 0 5 0C6.10457 0 7 0.89543 7 2ZM5 4C3.34315 4 2 4.89543 2 6C2 7.10457 3.34315 8 5 8C6.65685 8 8 7.10457 8 6C8 4.89543 6.65685 4 5 4ZM16 16C17.1046 16 18 15.1046 18 14C18 12.8954 17.1046 12 16 12C14.8954 12 14 12.8954 14 14C14 15.1046 14.8954 16 16 16ZM16 16C17.6569 16 19 16.8954 19 18C19 19.1046 17.6569 20 16 20C14.3431 20 13 19.1046 13 18C13 16.8954 14.3431 16 16 16ZM9.25 1C9.25 0.585786 9.58579 0.25 10 0.25C15.3848 0.25 19.75 4.61522 19.75 10C19.75 10.4142 19.4142 10.75 19 10.75C18.5858 10.75 18.25 10.4142 18.25 10C18.25 5.44365 14.5563 1.75 10 1.75C9.58579 1.75 9.25 1.41421 9.25 1ZM1 9.25C1.41421 9.25 1.75 9.58579 1.75 10C1.75 14.5563 5.44365 18.25 10 18.25C10.4142 18.25 10.75 18.5858 10.75 19C10.75 19.4142 10.4142 19.75 10 19.75C4.61522 19.75 0.25 15.3848 0.25 10C0.25 9.58579 0.585786 9.25 1 9.25Z" fill="white"/>
</svg>
