<svg width="24" height="24" viewBox="0 0 24 24" fill="none" xmlns="http://www.w3.org/2000/svg">
    <path
        d="M4.3 8.72909C4.3 6.67921 5.11125 4.71328 6.55528 3.2638C7.99931 1.81431 9.95783 1 12 1C14.0422 1 16.0007 1.81431 17.4447 3.2638C18.8888 4.71328 19.7 6.67921 19.7 8.72909V9.87189C21.5656 10.1402 23 11.7512 23 13.6978V13.9738C23 15.9337 21.3159 17.6518 19.3348 17.5601C18.5208 19.9009 16.4506 21.4788 14.2165 21.8785C13.6995 22.0684 13.0879 21.979 12.55 21.979C12.1124 21.979 11.6927 21.8045 11.3833 21.4939C11.0738 21.1833 10.9 20.762 10.9 20.3227C10.9 19.8835 11.0738 19.4622 11.3833 19.1516C11.6927 18.841 12.1124 18.6665 12.55 18.6665C13.4223 18.6665 14.3881 18.5395 14.9777 19.3389C16.4033 18.6577 17.5 17.2189 17.5 15.354V8.72909C17.5 7.26489 16.9205 5.86066 15.8891 4.82531C14.8576 3.78996 13.4587 3.20831 12 3.20831C10.5413 3.20831 9.14236 3.78996 8.11091 4.82531C7.07946 5.86066 6.5 7.26489 6.5 8.72909V15.6301C6.5 16.1425 6.29719 16.634 5.93618 16.9964C5.57517 17.3588 5.08554 17.5623 4.575 17.5623C3.62685 17.5623 2.71754 17.1843 2.04709 16.5113C1.37665 15.8383 1 14.9256 1 13.9738V13.6978C0.999762 12.7683 1.33326 11.8699 1.93935 11.1672C2.54544 10.4646 3.38353 10.0047 4.3 9.87189V8.72909Z"
        fill="white" />
    <path
        d="M13.3333 12.0788L13.9608 13.3333H12.7058L12.9708 12.8042L13.3333 12.0788ZM16 8.66667V15.3333C16 15.5101 15.9298 15.6797 15.8047 15.8047C15.6797 15.9298 15.5101 16 15.3333 16H8.66667C8.48986 16 8.32029 15.9298 8.19526 15.8047C8.07024 15.6797 8 15.5101 8 15.3333V8.66667C8 8.48986 8.07024 8.32029 8.19526 8.19526C8.32029 8.07024 8.48986 8 8.66667 8H15.3333C15.5101 8 15.6797 8.07024 15.8047 8.19526C15.9298 8.32029 16 8.48986 16 8.66667ZM15.2983 14.5175L13.6317 11.1842C13.604 11.1287 13.5615 11.082 13.5088 11.0494C13.4561 11.0168 13.3953 10.9995 13.3333 10.9995C13.2714 10.9995 13.2106 11.0168 13.1579 11.0494C13.1052 11.082 13.0626 11.1287 13.035 11.1842L12.4858 12.2833C12.1326 12.2141 11.7976 12.0723 11.5021 11.8667C11.9626 11.3453 12.2476 10.6922 12.3167 10H13C13.0884 10 13.1732 9.96488 13.2357 9.90237C13.2982 9.83986 13.3333 9.75507 13.3333 9.66667C13.3333 9.57826 13.2982 9.49348 13.2357 9.43096C13.1732 9.36845 13.0884 9.33333 13 9.33333H11.3333V9C11.3333 8.91159 11.2982 8.82681 11.2357 8.7643C11.1732 8.70179 11.0884 8.66667 11 8.66667C10.9116 8.66667 10.8268 8.70179 10.7643 8.7643C10.7018 8.82681 10.6667 8.91159 10.6667 9V9.33333H9C8.91159 9.33333 8.82681 9.36845 8.7643 9.43096C8.70179 9.49348 8.66667 9.57826 8.66667 9.66667C8.66667 9.75507 8.70179 9.83986 8.7643 9.90237C8.82681 9.96488 8.91159 10 9 10H11.645C11.5789 10.5259 11.3568 11.0201 11.0075 11.4188C10.8595 11.246 10.7335 11.0555 10.6325 10.8517C10.5916 10.7753 10.5225 10.7179 10.44 10.6916C10.3574 10.6653 10.2679 10.6722 10.1903 10.7107C10.1128 10.7493 10.0533 10.8165 10.0244 10.8982C9.99558 10.9799 9.99968 11.0696 10.0358 11.1483C10.1634 11.4056 10.323 11.6457 10.5108 11.8629C10.0669 12.1699 9.53976 12.334 9 12.3333C8.91159 12.3333 8.82681 12.3685 8.7643 12.431C8.70179 12.4935 8.66667 12.5783 8.66667 12.6667C8.66667 12.7551 8.70179 12.8399 8.7643 12.9024C8.82681 12.9649 8.91159 13 9 13C9.72364 13.0008 10.4277 12.7647 11.0046 12.3279C11.3537 12.5947 11.753 12.7883 12.1788 12.8971L11.3683 14.5175C11.3288 14.5966 11.3223 14.6882 11.3502 14.7721C11.3782 14.8561 11.4384 14.9254 11.5175 14.965C11.5966 15.0046 11.6882 15.0111 11.7721 14.9831C11.8561 14.9551 11.9254 14.895 11.965 14.8158L12.3725 14H14.2942L14.7017 14.8158C14.7213 14.855 14.7484 14.8899 14.7815 14.9186C14.8146 14.9473 14.853 14.9692 14.8945 14.9831C14.9361 14.9969 14.98 15.0025 15.0236 14.9994C15.0673 14.9963 15.11 14.9846 15.1492 14.965C15.1883 14.9454 15.2233 14.9183 15.252 14.8852C15.2807 14.8521 15.3026 14.8137 15.3164 14.7721C15.3303 14.7306 15.3358 14.6867 15.3327 14.643C15.3296 14.5993 15.3179 14.5567 15.2983 14.5175Z"
        fill="white" />
</svg>