<svg width="24" height="26" viewBox="-4 -4 22 26" fill="none" xmlns="http://www.w3.org/2000/svg">
    <path fill-rule="evenodd" clip-rule="evenodd"
        d="M3.47458 0.715265C5.16252 -0.41003 7.37968 0.621618 7.70853 2.51637H11C12.5188 2.51637 13.75 3.74759 13.75 5.26637C13.75 5.68058 13.4142 6.01637 13 6.01637C12.5858 6.01637 12.25 5.68058 12.25 5.26637C12.25 4.57601 11.6904 4.01637 11 4.01637H7.75V16.5164H11C11.6904 16.5164 12.25 15.9567 12.25 15.2664C12.25 14.8522 12.5858 14.5164 13 14.5164C13.4142 14.5164 13.75 14.8522 13.75 15.2664C13.75 16.7852 12.5188 18.0164 11 18.0164H7.70853C7.37968 19.9111 5.16252 20.9428 3.47458 19.8175L1.47457 18.4841C0.709528 17.9741 0.25 17.1155 0.25 16.196V4.33674C0.25 3.41727 0.709528 2.55863 1.47457 2.0486L3.47458 0.715265ZM14.4697 12.5303C14.1768 12.2374 14.1768 11.7626 14.4697 11.4697L15.1893 10.75L10 10.75C9.58579 10.75 9.25 10.4142 9.25 10C9.25 9.58579 9.58579 9.25 10 9.25L15.1893 9.25L14.4697 8.53033C14.1768 8.23744 14.1768 7.76256 14.4697 7.46967C14.7626 7.17678 15.2374 7.17678 15.5303 7.46967L16.8232 8.76256C17.5066 9.44598 17.5066 10.554 16.8232 11.2374L15.5303 12.5303C15.2374 12.8232 14.7626 12.8232 14.4697 12.5303Z"
        fill="white" />
</svg>