<svg width="26" height="26" viewBox="-2 -2 24 24" fill="none" xmlns="http://www.w3.org/2000/svg">
    <path
        d="M16.1111 10C15.6691 10 15.2452 9.82441 14.9326 9.51185C14.62 9.19928 14.4444 8.77536 14.4444 8.33333C14.4444 7.89131 14.62 7.46738 14.9326 7.15482C15.2452 6.84226 15.6691 6.66667 16.1111 6.66667C16.5531 6.66667 16.9771 6.84226 17.2896 7.15482C17.6022 7.46738 17.7778 7.89131 17.7778 8.33333C17.7778 8.77536 17.6022 9.19928 17.2896 9.51185C16.9771 9.82441 16.5531 10 16.1111 10ZM12.7778 5.55556C12.3358 5.55556 11.9118 5.37996 11.5993 5.0674C11.2867 4.75484 11.1111 4.33092 11.1111 3.88889C11.1111 3.44686 11.2867 3.02294 11.5993 2.71038C11.9118 2.39782 12.3358 2.22222 12.7778 2.22222C13.2198 2.22222 13.6437 2.39782 13.9563 2.71038C14.2689 3.02294 14.4444 3.44686 14.4444 3.88889C14.4444 4.33092 14.2689 4.75484 13.9563 5.0674C13.6437 5.37996 13.2198 5.55556 12.7778 5.55556ZM7.22222 5.55556C6.7802 5.55556 6.35627 5.37996 6.04371 5.0674C5.73115 4.75484 5.55556 4.33092 5.55556 3.88889C5.55556 3.44686 5.73115 3.02294 6.04371 2.71038C6.35627 2.39782 6.7802 2.22222 7.22222 2.22222C7.66425 2.22222 8.08817 2.39782 8.40073 2.71038C8.71329 3.02294 8.88889 3.44686 8.88889 3.88889C8.88889 4.33092 8.71329 4.75484 8.40073 5.0674C8.08817 5.37996 7.66425 5.55556 7.22222 5.55556ZM3.88889 10C3.44686 10 3.02294 9.82441 2.71038 9.51185C2.39782 9.19928 2.22222 8.77536 2.22222 8.33333C2.22222 7.89131 2.39782 7.46738 2.71038 7.15482C3.02294 6.84226 3.44686 6.66667 3.88889 6.66667C4.33092 6.66667 4.75484 6.84226 5.0674 7.15482C5.37996 7.46738 5.55556 7.89131 5.55556 8.33333C5.55556 8.77536 5.37996 9.19928 5.0674 9.51185C4.75484 9.82441 4.33092 10 3.88889 10ZM10 0C7.34784 0 4.8043 1.05357 2.92893 2.92893C1.05357 4.8043 0 7.34784 0 10C0 12.6522 1.05357 15.1957 2.92893 17.0711C4.8043 18.9464 7.34784 20 10 20C10.442 20 10.866 19.8244 11.1785 19.5118C11.4911 19.1993 11.6667 18.7754 11.6667 18.3333C11.6667 17.9 11.5 17.5111 11.2333 17.2222C10.9778 16.9222 10.8111 16.5333 10.8111 16.1111C10.8111 15.6691 10.9867 15.2452 11.2993 14.9326C11.6118 14.62 12.0358 14.4444 12.4778 14.4444H14.4444C15.9179 14.4444 17.3309 13.8591 18.3728 12.8173C19.4147 11.7754 20 10.3623 20 8.88889C20 3.97778 15.5222 0 10 0Z"
        fill="white" />
</svg>