<svg width="22" height="22" viewBox="-2 -2 20 20" fill="none" xmlns="http://www.w3.org/2000/svg">
    <path fill-rule="evenodd" clip-rule="evenodd"
        d="M8.04545 0H9.95455C11.0089 0 11.8636 0.805887 11.8636 1.8C11.8636 2.93762 13.0808 3.66088 14.08 3.11698L14.1815 3.06174C15.0946 2.56468 16.2622 2.85966 16.7894 3.72058L17.7439 5.27943C18.2711 6.14036 17.9582 7.24122 17.0451 7.73828C16.0455 8.28243 16.0455 9.71757 17.0451 10.2617C17.9582 10.7588 18.2711 11.8596 17.7439 12.7206L16.7894 14.2794C16.2622 15.1403 15.0946 15.4353 14.1815 14.9383L14.08 14.883C13.0808 14.3391 11.8636 15.0624 11.8636 16.2C11.8636 17.1941 11.0089 18 9.95455 18H8.04545C6.99109 18 6.13635 17.1941 6.13635 16.2C6.13635 15.0624 4.91917 14.3391 3.92 14.883L3.81851 14.9383C2.90541 15.4353 1.73782 15.1404 1.21064 14.2794L0.256089 12.7206C-0.271093 11.8597 0.0417603 10.7588 0.954868 10.2617C1.95451 9.71758 1.95451 8.28242 0.954869 7.73826C0.0417618 7.24121 -0.271092 6.14034 0.256091 5.27942L1.21064 3.72057C1.73782 2.85964 2.90541 2.56467 3.81852 3.06172L3.92 3.11697C4.91917 3.66087 6.13635 2.93761 6.13635 1.8C6.13635 0.805888 6.99109 0 8.04545 0ZM9.00001 12C10.6569 12 12 10.6569 12 9C12 7.34315 10.6569 6 9.00001 6C7.34315 6 6.00001 7.34315 6.00001 9C6.00001 10.6569 7.34315 12 9.00001 12Z"
        fill="white" />
</svg>