<svg width="10" height="10" viewBox="0 0 10 10" fill="none" xmlns="http://www.w3.org/2000/svg">
<path d="M4.0625 0.5C3.81386 0.5 3.5754 0.607486 3.39959 0.798812C3.22377 0.990139 3.125 1.24963 3.125 1.52021V1.86028H0.9375C0.68886 1.86028 0.450403 1.96776 0.274587 2.15909C0.098772 2.35042 0 2.60991 0 2.88049L0 3.8218L4.75875 5.20248C4.91683 5.24829 5.08317 5.24829 5.24125 5.20248L10 3.8218V2.88049C10 2.60991 9.90123 2.35042 9.72541 2.15909C9.5496 1.96776 9.31114 1.86028 9.0625 1.86028H6.875V1.52021C6.875 1.24963 6.77623 0.990139 6.60041 0.798812C6.4246 0.607486 6.18614 0.5 5.9375 0.5H4.0625ZM4.0625 1.18014H5.9375C6.02038 1.18014 6.09987 1.21597 6.15847 1.27974C6.21708 1.34352 6.25 1.43002 6.25 1.52021V1.86028H3.75V1.52021C3.75 1.43002 3.78292 1.34352 3.84153 1.27974C3.90013 1.21597 3.97962 1.18014 4.0625 1.18014Z" fill="url(#paint0_linear_4357_6696)"/>
<path d="M0 8.40687C0 8.69678 0.098772 8.97482 0.274587 9.17982C0.450403 9.38482 0.68886 9.49999 0.9375 9.49999H9.0625C9.31114 9.49999 9.5496 9.38482 9.72541 9.17982C9.90123 8.97482 10 8.69678 10 8.40687V4.28946L5.08062 5.81764C5.0278 5.83408 4.9722 5.83408 4.91937 5.81764L0 4.28946V8.40687Z" fill="url(#paint1_linear_4357_6696)"/>
<defs>
<linearGradient id="paint0_linear_4357_6696" x1="12.2253" y1="-0.580104" x2="7.75721" y2="8.89487" gradientUnits="userSpaceOnUse">
<stop stop-color="#9D50BB"/>
</linearGradient>
<linearGradient id="paint1_linear_4357_6696" x1="12.2253" y1="3.10134" x2="7.01786" y2="13.1403" gradientUnits="userSpaceOnUse">
<stop stop-color="#9D50BB"/>
</linearGradient>
</defs>
</svg>
