<svg width="10" height="10" viewBox="0 0 10 10" fill="none" xmlns="http://www.w3.org/2000/svg">
<path d="M8.05556 5C7.83454 5 7.62258 4.9122 7.4663 4.75592C7.31002 4.59964 7.22222 4.38768 7.22222 4.16667C7.22222 3.94565 7.31002 3.73369 7.4663 3.57741C7.62258 3.42113 7.83454 3.33333 8.05556 3.33333C8.27657 3.33333 8.48853 3.42113 8.64481 3.57741C8.80109 3.73369 8.88889 3.94565 8.88889 4.16667C8.88889 4.38768 8.80109 4.59964 8.64481 4.75592C8.48853 4.9122 8.27657 5 8.05556 5ZM6.38889 2.77778C6.16788 2.77778 5.95591 2.68998 5.79963 2.5337C5.64335 2.37742 5.55556 2.16546 5.55556 1.94444C5.55556 1.72343 5.64335 1.51147 5.79963 1.35519C5.95591 1.19891 6.16788 1.11111 6.38889 1.11111C6.6099 1.11111 6.82186 1.19891 6.97814 1.35519C7.13443 1.51147 7.22222 1.72343 7.22222 1.94444C7.22222 2.16546 7.13443 2.37742 6.97814 2.5337C6.82186 2.68998 6.6099 2.77778 6.38889 2.77778ZM3.61111 2.77778C3.3901 2.77778 3.17814 2.68998 3.02186 2.5337C2.86558 2.37742 2.77778 2.16546 2.77778 1.94444C2.77778 1.72343 2.86558 1.51147 3.02186 1.35519C3.17814 1.19891 3.3901 1.11111 3.61111 1.11111C3.83213 1.11111 4.04409 1.19891 4.20037 1.35519C4.35665 1.51147 4.44444 1.72343 4.44444 1.94444C4.44444 2.16546 4.35665 2.37742 4.20037 2.5337C4.04409 2.68998 3.83213 2.77778 3.61111 2.77778ZM1.94444 5C1.72343 5 1.51147 4.9122 1.35519 4.75592C1.19891 4.59964 1.11111 4.38768 1.11111 4.16667C1.11111 3.94565 1.19891 3.73369 1.35519 3.57741C1.51147 3.42113 1.72343 3.33333 1.94444 3.33333C2.16546 3.33333 2.37742 3.42113 2.5337 3.57741C2.68998 3.73369 2.77778 3.94565 2.77778 4.16667C2.77778 4.38768 2.68998 4.59964 2.5337 4.75592C2.37742 4.9122 2.16546 5 1.94444 5ZM5 0C3.67392 0 2.40215 0.526784 1.46447 1.46447C0.526784 2.40215 0 3.67392 0 5C0 6.32608 0.526784 7.59785 1.46447 8.53553C2.40215 9.47322 3.67392 10 5 10C5.22101 10 5.43298 9.9122 5.58926 9.75592C5.74554 9.59964 5.83333 9.38768 5.83333 9.16667C5.83333 8.95 5.75 8.75556 5.61667 8.61111C5.48889 8.46111 5.40556 8.26667 5.40556 8.05556C5.40556 7.83454 5.49335 7.62258 5.64963 7.4663C5.80591 7.31002 6.01788 7.22222 6.23889 7.22222H7.22222C7.95894 7.22222 8.66547 6.92956 9.18641 6.40863C9.70734 5.8877 10 5.18116 10 4.44444C10 1.98889 7.76111 0 5 0Z" fill="#409CFF"/>
</svg>
