<svg width="12" height="12" viewBox="0 0 12 12" fill="none" xmlns="http://www.w3.org/2000/svg">
    <path
        d="M2.15 4.36455C2.15 3.3396 2.55562 2.35664 3.27764 1.6319C3.99965 0.907156 4.97892 0.5 6 0.5C7.02108 0.5 8.00035 0.907156 8.72236 1.6319C9.44438 2.35664 9.85 3.3396 9.85 4.36455V4.93595C10.7828 5.0701 11.5 5.87558 11.5 6.8489V6.98692C11.5 7.96685 10.6579 8.82589 9.6674 8.78006C9.2604 9.95047 8.2253 10.7394 7.10825 10.9392C6.84975 11.0342 6.54395 10.9895 6.275 10.9895C6.0562 10.9895 5.84635 10.9022 5.69164 10.7469C5.53692 10.5916 5.45 10.381 5.45 10.1614C5.45 9.94173 5.53692 9.7311 5.69164 9.5758C5.84635 9.42049 6.0562 9.33325 6.275 9.33325C6.71115 9.33325 7.19405 9.26976 7.48885 9.66946C8.20165 9.32883 8.75 8.60947 8.75 7.67701V4.36455C8.75 3.63244 8.46027 2.93033 7.94454 2.41266C7.42882 1.89498 6.72935 1.60416 6 1.60416C5.27065 1.60416 4.57118 1.89498 4.05546 2.41266C3.53973 2.93033 3.25 3.63244 3.25 4.36455V7.81503C3.25 8.07127 3.14859 8.31701 2.96809 8.49819C2.78759 8.67938 2.54277 8.78117 2.2875 8.78117C1.81343 8.78117 1.35877 8.59213 1.02355 8.25564C0.688325 7.91916 0.5 7.46278 0.5 6.98692V6.8489C0.499881 6.38417 0.666628 5.93496 0.969675 5.58362C1.27272 5.23228 1.69177 5.00234 2.15 4.93595V4.36455Z"
        fill="#FFB340" />
    <path
        d="M6.66667 6.03938L6.98042 6.66667H6.35292L6.48542 6.40208L6.66667 6.03938ZM8 4.33333V7.66667C8 7.75507 7.96488 7.83986 7.90237 7.90237C7.83986 7.96488 7.75507 8 7.66667 8H4.33333C4.24493 8 4.16014 7.96488 4.09763 7.90237C4.03512 7.83986 4 7.75507 4 7.66667V4.33333C4 4.24493 4.03512 4.16014 4.09763 4.09763C4.16014 4.03512 4.24493 4 4.33333 4H7.66667C7.75507 4 7.83986 4.03512 7.90237 4.09763C7.96488 4.16014 8 4.24493 8 4.33333ZM7.64917 7.25875L6.81583 5.59208C6.80201 5.56435 6.78073 5.54102 6.75438 5.52471C6.72803 5.5084 6.69766 5.49976 6.66667 5.49976C6.63568 5.49976 6.6053 5.5084 6.57895 5.52471C6.5526 5.54102 6.53132 5.56435 6.5175 5.59208L6.24292 6.14167C6.06629 6.10707 5.89878 6.03613 5.75104 5.93333C5.98132 5.67263 6.1238 5.34612 6.15833 5H6.5C6.5442 5 6.5866 4.98244 6.61785 4.95118C6.64911 4.91993 6.66667 4.87754 6.66667 4.83333C6.66667 4.78913 6.64911 4.74674 6.61785 4.71548C6.5866 4.68423 6.5442 4.66667 6.5 4.66667H5.66667V4.5C5.66667 4.4558 5.64911 4.4134 5.61785 4.38215C5.5866 4.35089 5.5442 4.33333 5.5 4.33333C5.4558 4.33333 5.41341 4.35089 5.38215 4.38215C5.35089 4.4134 5.33333 4.4558 5.33333 4.5V4.66667H4.5C4.4558 4.66667 4.4134 4.68423 4.38215 4.71548C4.35089 4.74674 4.33333 4.78913 4.33333 4.83333C4.33333 4.87754 4.35089 4.91993 4.38215 4.95118C4.4134 4.98244 4.4558 5 4.5 5H5.8225C5.78944 5.26297 5.67842 5.51003 5.50375 5.70938C5.42975 5.62299 5.36677 5.52775 5.31625 5.42583C5.29578 5.38766 5.26125 5.35896 5.21999 5.34581C5.17872 5.33265 5.13395 5.33608 5.09517 5.35536C5.05638 5.37465 5.02663 5.40827 5.01221 5.44911C4.99779 5.48996 4.99984 5.53481 5.01792 5.57417C5.08171 5.7028 5.16151 5.82285 5.25542 5.93146C5.03343 6.08494 4.76988 6.167 4.5 6.16667C4.4558 6.16667 4.4134 6.18423 4.38215 6.21548C4.35089 6.24674 4.33333 6.28913 4.33333 6.33333C4.33333 6.37754 4.35089 6.41993 4.38215 6.45118C4.4134 6.48244 4.4558 6.5 4.5 6.5C4.86182 6.50039 5.21383 6.38237 5.50229 6.16396C5.67684 6.29737 5.87652 6.39417 6.08937 6.44854L5.68417 7.25875C5.66439 7.29831 5.66113 7.34411 5.67512 7.38607C5.68911 7.42803 5.71919 7.46272 5.75875 7.4825C5.79831 7.50228 5.84411 7.50554 5.88607 7.49155C5.92803 7.47756 5.96272 7.44748 5.9825 7.40792L6.18625 7H7.14708L7.35083 7.40792C7.36063 7.42751 7.37418 7.44497 7.39073 7.45932C7.40728 7.47367 7.42648 7.48462 7.44726 7.49155C7.46804 7.49847 7.48998 7.50124 7.51182 7.49969C7.53367 7.49813 7.55499 7.49229 7.57458 7.4825C7.59417 7.47271 7.61164 7.45915 7.62599 7.4426C7.64034 7.42606 7.65129 7.40685 7.65822 7.38607C7.66514 7.36529 7.66791 7.34336 7.66635 7.32151C7.6648 7.29967 7.65896 7.27834 7.64917 7.25875Z"
        fill="#FFB340" />
</svg>