<svg width="10" height="10" viewBox="0 0 10 10" fill="none" xmlns="http://www.w3.org/2000/svg">
<path fill-rule="evenodd" clip-rule="evenodd" d="M3.5 1C3.5 1.55228 3.05228 2 2.5 2C1.94772 2 1.5 1.55228 1.5 1C1.5 0.447715 1.94772 0 2.5 0C3.05228 0 3.5 0.447715 3.5 1ZM2.5 2C1.67157 2 1 2.44772 1 3C1 3.55228 1.67157 4 2.5 4C3.32843 4 4 3.55228 4 3C4 2.44772 3.32843 2 2.5 2ZM8 8C8.55228 8 9 7.55228 9 7C9 6.44772 8.55228 6 8 6C7.44772 6 7 6.44772 7 7C7 7.55228 7.44772 8 8 8ZM8 8C8.82843 8 9.5 8.44772 9.5 9C9.5 9.55229 8.82843 10 8 10C7.17157 10 6.5 9.55229 6.5 9C6.5 8.44772 7.17157 8 8 8ZM4.625 0.5C4.625 0.292893 4.79289 0.125 5 0.125C7.69239 0.125 9.875 2.30761 9.875 5C9.875 5.20711 9.70711 5.375 9.5 5.375C9.29289 5.375 9.125 5.20711 9.125 5C9.125 2.72183 7.27817 0.875 5 0.875C4.79289 0.875 4.625 0.707107 4.625 0.5ZM0.5 4.625C0.707107 4.625 0.875 4.79289 0.875 5C0.875 7.27817 2.72183 9.125 5 9.125C5.20711 9.125 5.375 9.29289 5.375 9.5C5.375 9.70711 5.20711 9.875 5 9.875C2.30761 9.875 0.125 7.69239 0.125 5C0.125 4.79289 0.292893 4.625 0.5 4.625Z" fill="#30DB5B"/>
</svg>
