<svg xmlns="http://www.w3.org/2000/svg" xmlns:xlink="http://www.w3.org/1999/xlink" version="1.1" x="0px" y="0px"
	viewBox="0 0 30 30" style="enable-background:new 0 0 32 32;" xml:space="preserve">

	<style type="text/css">
		.st0 {
			display: none;
		}

		.st1 {
			display: inline;
		}
	</style>
	<g>
		<path
			d="M28.162,21.243c-0.463-0.701-1.208-1.161-2.042-1.264l-3.356-0.411v-3.301c0-1.402-1.141-2.543-2.542-2.543   s-2.542,1.141-2.542,2.543v4.851l-0.928-0.574c-1.091-0.677-2.505-0.419-3.291,0.597c-0.729,0.945-0.687,2.281,0.102,3.177   l4.175,4.741c0.471,0.534,1.15,0.841,1.862,0.841h5.248c1.1,0,2.08-0.738,2.385-1.795l1.292-4.489   C28.757,22.808,28.625,21.943,28.162,21.243z M26.795,23.117l-1.292,4.489c-0.084,0.291-0.353,0.494-0.655,0.494h-5.248   c-0.196,0-0.382-0.084-0.512-0.231l-4.175-4.74c-0.221-0.25-0.232-0.624-0.028-0.887c0.137-0.177,0.342-0.272,0.551-0.272   c0.125,0,0.253,0.034,0.367,0.105l2.301,1.425c0.278,0.172,0.627,0.181,0.912,0.021c0.285-0.159,0.462-0.459,0.462-0.786v-6.467   c0-0.41,0.333-0.743,0.743-0.743s0.743,0.333,0.743,0.743v4.097c0,0.455,0.339,0.838,0.791,0.894l4.146,0.508   c0.314,0.038,0.584,0.205,0.759,0.47C26.835,22.5,26.883,22.813,26.795,23.117z" />
		<path
			d="M12.945,17.12c0,0.497,0.403,0.9,0.9,0.9s0.9-0.403,0.9-0.9v-0.468c1.882-0.536,2.158-1.786,2.174-2.389   c0.032-1.255-0.936-2.116-2.877-2.558c-1.347-0.306-1.472-0.635-1.463-0.762c0.049-0.726,1.509-0.858,2.186-0.839   c0,0.497,0.403,0.9,0.9,0.9s0.9-0.403,0.9-0.9s-0.205-0.98-0.563-1.325c-0.342-0.33-0.774-0.513-1.257-0.509V8.043   c0-0.497-0.403-0.9-0.9-0.9s-0.9,0.403-0.9,0.9v0.471c-1.734,0.493-2.114,1.594-2.162,2.306c-0.089,1.3,0.874,2.188,2.86,2.639   c1.446,0.329,1.478,0.713,1.477,0.756c-0.02,0.77-1.792,0.873-2.186,0.873c0,0-0.001,0-0.001,0   c-0.012-0.011-0.012-0.021-0.012-0.027c0-0.497-0.403-0.899-0.9-0.899s-0.9,0.403-0.9,0.9c0,0.502,0.199,0.972,0.561,1.321   c0.338,0.327,0.795,0.51,1.264,0.516V17.12z" />
		<path
			d="M10.353,20.526c-3.153-1.381-5.191-4.5-5.191-7.946c0-4.786,3.898-8.68,8.69-8.68c4.472,0,8.184,3.35,8.635,7.791   c0.05,0.494,0.49,0.851,0.986,0.805c0.495-0.05,0.855-0.492,0.805-0.986C23.733,6.145,19.251,2.1,13.852,2.1   c-5.784,0-10.49,4.701-10.49,10.48c0,4.161,2.46,7.927,6.269,9.594c0.117,0.052,0.24,0.076,0.36,0.076   c0.347,0,0.677-0.202,0.825-0.54C11.016,21.256,10.809,20.725,10.353,20.526z" />
	</g>

</svg>