<?xml version="1.0" ?>
<!-- Uploaded to: SVG Repo, www.svgrepo.com, Generator: SVG Repo Mixer Tools -->
<svg fill="#000000" width="800px" height="800px" viewBox="0 0 32 32" enable-background="new 0 0 32 32" id="Layer_3" version="1.1" xml:space="preserve" xmlns="http://www.w3.org/2000/svg" xmlns:xlink="http://www.w3.org/1999/xlink">
<g>
<path d="M10,21h3.697l2.748,1.832C16.611,22.943,16.805,23,17,23c0.086,0,0.172-0.011,0.257-0.034   c0.277-0.073,0.51-0.263,0.638-0.519L18.618,21H22c0.553,0,1-0.448,1-1v-6c0-0.552-0.447-1-1-1H10c-0.553,0-1,0.448-1,1v6   C9,20.552,9.447,21,10,21z M11,15h10v4h-3c-0.379,0-0.725,0.214-0.895,0.553l-0.493,0.987l-2.058-1.372   C14.391,19.059,14.197,19,14,19h-3V15z"/>
<path d="M3,30c0.553,0,1-0.448,1-1v-1c0-1.103,0.897-2,2-2s2,0.897,2,2v1c0,0.552,0.447,1,1,1s1-0.448,1-1v-1   c0-1.311-0.642-2.465-1.619-3.195C8.764,24.301,9,23.68,9,23c0-1.654-1.346-3-3-3s-3,1.346-3,3c0,0.68,0.236,1.301,0.619,1.805   C2.642,25.535,2,26.689,2,28v1C2,29.552,2.447,30,3,30z M5,23c0-0.551,0.448-1,1-1s1,0.449,1,1s-0.448,1-1,1S5,23.551,5,23z"/>
<path d="M28.381,24.805C28.764,24.301,29,23.68,29,23c0-1.654-1.346-3-3-3s-3,1.346-3,3c0,0.68,0.236,1.301,0.619,1.805   C22.642,25.535,22,26.689,22,28v1c0,0.552,0.447,1,1,1s1-0.448,1-1v-1c0-1.103,0.897-2,2-2s2,0.897,2,2v1c0,0.552,0.447,1,1,1   s1-0.448,1-1v-1C30,26.689,29.358,25.535,28.381,24.805z M25,23c0-0.551,0.448-1,1-1s1,0.449,1,1s-0.448,1-1,1S25,23.551,25,23z"/>
<path d="M13,12c0.553,0,1-0.448,1-1v-1c0-1.103,0.897-2,2-2s2,0.897,2,2v1c0,0.552,0.447,1,1,1s1-0.448,1-1v-1   c0-1.311-0.642-2.465-1.619-3.195C18.764,6.301,19,5.68,19,5c0-1.654-1.346-3-3-3s-3,1.346-3,3c0,0.68,0.236,1.301,0.619,1.805   C12.642,7.535,12,8.689,12,10v1C12,11.552,12.447,12,13,12z M15,5c0-0.551,0.448-1,1-1s1,0.449,1,1s-0.448,1-1,1S15,5.551,15,5z"/>
</g>
</svg>